# xmcd
#
# Track frame offsets: 
#        150
#        18835
#        37065
#        57516
#        73711
#        95196
#        112649
#        128536
#        142633
#        155885
#        164588
#        187273
#        201235
#
# Disc length: 2895 seconds
#
# Revision: 0
# Processed by: cddbd v1.5.2PL0 Copyright (c) Steve Scherf et al.
# Submitted via: ExactAudioCopy v0.95a5
#
DISCID=ba0b4d0d
DTITLE=SCRAPOMATIC - SIDEWALK CAESARS
DYEAR=2008
DGENRE=Blues
TTITLE0=HE CALLED MY NAME
TTITLE1=DRINK HOUSE
TTITLE2=KILLING YOURSELF ON PURPOSE
TTITLE3=I WANT THE TRUTH
TTITLE4=REMEMBER THIS DAY
TTITLE5=LONG GONE
TTITLE6=HOOK, LINE AND SINKER
TTITLE7=THE FIRE NEXT TIME
TTITLE8=THE OLD WHISKEY SHOW
TTITLE9=DRUNKEN SPREE
TTITLE10=LONG-HAIRED STATE
TTITLE11=I JUST WANNA HANG AROUND WITH YOU
TTITLE12=GOOD LUCK WITH YOUR IMPOSSIBLE DREAM
EXTD=
EXTT0=
EXTT1=
EXTT2=
EXTT3=
EXTT4=
EXTT5=
EXTT6=
EXTT7=
EXTT8=
EXTT9=
EXTT10=
EXTT11=
EXTT12=
PLAYORDER=
